<?xml version="1.0" standalone="no"?>
<!DOCTYPE svg PUBLIC "-//W3C//DTD SVG 20010904//EN"
 "http://www.w3.org/TR/2001/REC-SVG-20010904/DTD/svg10.dtd">
<svg version="1.0" xmlns="http://www.w3.org/2000/svg"
 width="700.000000pt" height="700.000000pt" viewBox="0 0 700.000000 700.000000"
 preserveAspectRatio="xMidYMid meet">
<metadata>
Created by potrace 1.11, written by Peter Selinger 2001-2013
</metadata>
<g transform="translate(0.000000,700.000000) scale(0.100000,-0.100000)"
fill="#000000" stroke="none">
<path d="M2101 6754 c-1 -6 -16 -10 -36 -9 -19 1 -35 -3 -35 -8 0 -5 -9 -7
-20 -4 -11 3 -23 1 -26 -4 -3 -5 -10 -7 -15 -4 -5 4 -9 1 -9 -5 0 -6 -4 -9 -8
-6 -5 3 -21 -1 -36 -9 -14 -8 -24 -10 -21 -4 4 5 -10 0 -29 -11 -20 -11 -36
-16 -36 -12 0 4 -4 2 -8 -3 -8 -12 -64 -39 -74 -37 -5 1 -8 -2 -8 -8 0 -6 -5
-10 -11 -10 -6 0 -17 -7 -26 -15 -8 -8 -20 -12 -26 -8 -7 3 -9 2 -4 -2 4 -5
-10 -20 -31 -34 -57 -39 -82 -64 -75 -74 3 -6 2 -7 -4 -4 -6 4 -28 -14 -49
-39 -22 -25 -51 -58 -66 -74 -14 -16 -24 -30 -22 -33 2 -2 -5 -12 -16 -22 -11
-10 -20 -24 -20 -31 0 -7 -6 -17 -14 -21 -8 -4 -15 -11 -16 -15 -8 -35 -14
-48 -22 -48 -5 0 -6 -4 -3 -10 3 -5 2 -10 -4 -10 -5 0 -13 -10 -17 -22 -4 -13
-18 -48 -32 -78 -14 -30 -25 -61 -25 -67 0 -7 -3 -13 -7 -13 -6 0 -8 -7 -12
-49 -1 -11 -6 -17 -11 -14 -5 3 -8 -1 -6 -8 3 -25 -1 -40 -9 -35 -4 2 -9 -5
-9 -17 -3 -42 -15 -92 -26 -106 -10 -12 -9 -13 2 -6 11 6 12 5 5 -6 -4 -8 -10
-23 -12 -34 -7 -37 -8 -40 -16 -54 -7 -10 -5 -12 3 -6 10 6 11 3 1 -15 -6 -12
-9 -28 -6 -35 3 -8 1 -17 -4 -20 -5 -3 -7 -19 -5 -35 2 -17 1 -28 -4 -26 -4 3
-8 -1 -8 -9 0 -8 4 -15 9 -15 5 0 6 -6 1 -12 -4 -7 -8 -21 -9 -30 -1 -10 -2
-21 -4 -25 -1 -5 -2 -27 -2 -51 0 -29 -3 -40 -11 -35 -9 5 -9 3 -1 -8 12 -15
11 -139 0 -158 -4 -6 -3 -11 1 -11 10 0 10 -70 1 -86 -4 -6 -4 -14 0 -18 7 -8
11 -44 14 -123 0 -23 4 -40 9 -38 4 3 4 -8 -1 -24 -4 -16 -5 -32 -2 -35 6 -7
14 -61 15 -108 1 -16 4 -28 7 -28 3 0 7 -19 9 -42 1 -23 7 -46 14 -50 9 -6 9
-8 -1 -8 -7 0 -10 -5 -7 -11 4 -5 9 -25 12 -42 3 -18 6 -36 7 -42 1 -5 5 -16
9 -22 5 -7 5 -17 2 -23 -3 -5 -1 -10 6 -10 8 0 7 -5 -2 -17 -8 -9 -9 -14 -3
-10 7 4 14 -2 17 -13 3 -12 1 -18 -5 -14 -5 3 -3 -7 4 -22 8 -16 14 -36 13
-44 0 -8 3 -18 8 -21 4 -3 9 -22 10 -41 1 -20 5 -34 8 -32 6 3 16 -33 21 -73
1 -7 5 -13 9 -13 5 0 6 -6 3 -14 -3 -8 -1 -17 5 -21 6 -3 11 -19 11 -36 0 -16
5 -29 10 -29 6 0 10 -10 10 -23 0 -13 4 -27 10 -33 5 -5 11 -19 13 -31 2 -13
6 -26 10 -29 4 -4 7 -16 7 -26 0 -10 5 -18 11 -18 5 0 8 -4 4 -9 -3 -5 -1 -12
5 -16 6 -4 8 -11 5 -16 -4 -5 1 -16 9 -25 9 -8 16 -24 16 -35 0 -10 5 -19 11
-19 5 0 8 -3 6 -7 -3 -5 7 -34 22 -65 15 -31 23 -55 17 -52 -6 3 -3 -1 6 -9
10 -8 15 -17 11 -20 -3 -4 -1 -7 5 -7 7 0 12 -6 12 -13 0 -19 24 -67 33 -67 5
0 5 -4 2 -10 -3 -5 -1 -10 5 -10 7 0 10 -7 6 -15 -3 -8 -1 -15 4 -15 6 0 10
-7 10 -15 0 -8 5 -15 11 -15 5 0 7 -4 4 -10 -3 -5 -1 -10 5 -10 6 0 8 -4 5
-10 -3 -5 -3 -10 2 -10 4 0 13 -10 18 -23 22 -46 60 -112 68 -115 4 -2 7 -10
7 -18 0 -8 5 -14 10 -14 6 0 10 -9 10 -21 0 -11 5 -17 10 -14 6 3 10 -1 10
-10 0 -8 7 -18 15 -21 8 -4 13 -9 10 -14 -2 -4 5 -16 15 -28 11 -12 20 -28 20
-37 0 -9 4 -14 9 -10 18 11 35 -74 18 -86 -5 -4 -10 -21 -11 -38 0 -17 -3 -31
-6 -31 -3 0 -7 -8 -8 -17 -2 -24 -10 -58 -13 -58 -2 0 -4 -15 -12 -91 -2 -22
-8 -47 -12 -54 -6 -9 -4 -11 5 -5 9 6 11 4 5 -4 -4 -7 -9 -32 -12 -54 -8 -76
-8 -1057 0 -1057 5 0 5 -5 2 -10 -4 -6 -12 -7 -18 -3 -9 5 -9 3 -1 -8 8 -10
11 -120 10 -374 -1 -199 3 -366 7 -372 6 -9 5 -13 -2 -13 -8 0 -10 -8 -5 -22
4 -13 8 -30 9 -38 3 -29 25 -71 34 -65 5 3 12 -4 16 -15 3 -11 9 -19 13 -19
21 3 32 -2 26 -13 -4 -7 -3 -8 5 -4 6 4 23 1 36 -8 13 -9 29 -16 34 -16 6 0
40 -13 76 -30 36 -16 72 -30 81 -30 9 0 12 -5 8 -12 -5 -8 -2 -9 9 -5 10 3 17
2 17 -3 0 -6 3 -9 8 -8 4 1 24 -5 45 -15 99 -45 113 -51 126 -53 8 -2 18 -9
22 -16 5 -7 9 -10 9 -5 0 4 14 1 30 -8 17 -9 30 -12 30 -8 0 5 4 2 9 -5 4 -7
14 -14 22 -16 32 -5 59 -18 59 -27 0 -6 4 -8 9 -5 10 7 63 -18 56 -26 -3 -2 1
-5 8 -6 30 -2 62 -13 65 -22 2 -6 8 -8 13 -4 5 3 9 1 9 -3 0 -5 10 -10 22 -10
13 -1 24 -7 26 -12 2 -5 10 -7 18 -4 8 3 14 0 14 -7 0 -6 5 -8 10 -5 6 3 10 1
10 -4 0 -6 8 -11 18 -11 10 0 27 -6 37 -14 11 -8 25 -12 32 -9 7 3 13 1 13 -4
0 -5 16 -9 35 -9 19 0 35 4 35 8 0 4 7 5 15 2 8 -4 15 -1 15 5 0 6 6 11 13 11
17 0 47 36 47 56 0 8 4 13 9 10 5 -3 8 10 7 29 -1 19 3 35 9 35 5 0 3 5 -5 10
-11 7 -11 10 -2 10 10 0 10 5 2 20 -6 12 -7 20 -1 20 6 0 6 11 1 30 -6 21 -5
30 3 30 7 0 6 4 -3 10 -9 6 -10 10 -3 10 8 0 9 9 3 30 -6 21 -5 30 3 30 7 0 6
4 -3 10 -9 6 -10 10 -3 10 8 0 9 9 3 30 -6 21 -5 30 3 30 7 0 6 4 -3 10 -9 6
-10 10 -3 10 8 0 9 9 3 30 -5 19 -5 30 1 30 6 0 5 8 -1 20 -8 15 -8 20 2 20 9
0 9 3 -2 10 -8 5 -10 10 -4 10 7 0 8 17 4 50 -4 33 -3 50 4 50 6 0 4 5 -4 10
-8 5 -10 10 -4 10 7 0 8 17 4 50 -4 33 -3 50 4 50 6 0 4 5 -4 10 -11 7 -11 10
-2 10 10 0 10 5 2 20 -6 12 -7 20 -1 20 6 0 6 11 1 30 -6 21 -5 30 3 30 7 0 6
4 -3 10 -9 6 -10 10 -3 10 8 0 9 9 3 30 -6 21 -5 30 3 30 7 0 6 4 -3 10 -9 6
-10 10 -3 10 8 0 9 9 3 30 -6 21 -5 30 3 30 7 0 6 4 -3 10 -11 7 -11 10 -2 10
10 0 10 5 2 20 -8 15 -8 20 1 20 9 0 9 3 0 14 -6 8 -11 18 -10 22 10 46 -79
115 -141 110 -14 -1 -31 2 -37 7 -9 6 -13 5 -13 -2 0 -6 -5 -11 -11 -11 -5 0
-8 4 -5 9 4 5 -10 5 -32 0 -20 -4 -37 -9 -37 -10 0 -1 -10 3 -22 10 -13 7 -23
8 -23 2 0 -6 -11 -6 -30 -1 -16 5 -30 5 -30 2 0 -9 -84 -7 -99 2 -8 5 -8 13
-1 27 7 11 7 19 1 19 -10 0 -9 19 2 37 4 6 2 15 -4 19 -8 4 -7 9 2 15 9 6 10
9 2 9 -12 0 -12 17 0 37 4 6 2 15 -4 19 -8 4 -7 9 2 15 9 6 10 9 2 9 -12 0
-12 17 0 37 4 6 2 15 -4 19 -8 4 -7 9 2 15 9 6 10 9 2 9 -12 0 -12 17 0 37 4
6 2 15 -4 19 -8 4 -7 9 2 15 9 6 10 9 2 9 -12 0 -12 24 0 36 4 4 2 13 -3 20
-12 14 -10 36 5 47 7 4 7 10 0 15 -12 8 -13 27 -3 38 4 4 3 13 -2 20 -12 14
-10 36 5 47 7 4 7 10 0 15 -12 8 -13 27 -3 38 4 4 3 13 -2 20 -12 14 -10 36 5
47 7 5 7 10 0 15 -15 11 -19 46 -5 37 9 -5 9 -2 3 11 -5 11 -9 25 -9 33 1 16
42 25 51 11 3 -6 15 -10 26 -10 10 0 19 -4 19 -9 0 -9 48 -26 63 -23 4 1 7 -3
7 -10 0 -6 3 -9 6 -5 3 3 26 -5 50 -18 24 -13 42 -20 39 -16 -2 5 20 -4 50
-20 30 -16 55 -25 55 -21 0 4 4 2 8 -4 4 -7 18 -14 32 -15 14 -2 34 -12 44
-22 11 -9 25 -16 30 -15 6 1 33 -8 60 -20 27 -12 50 -22 52 -22 2 0 33 -13 69
-30 36 -16 72 -30 80 -30 8 0 15 -5 15 -11 0 -5 5 -7 10 -4 6 3 10 1 10 -5 0
-6 4 -8 10 -5 5 3 21 -1 34 -10 14 -9 31 -18 38 -19 13 -3 59 -21 88 -36 20
-9 58 -6 93 9 16 6 33 8 39 5 7 -4 8 -2 4 4 -5 8 0 12 13 12 11 0 23 5 26 10
4 6 11 8 16 5 5 -4 9 -1 9 4 0 6 9 11 21 11 11 0 18 4 15 8 -2 4 3 9 12 10 59
6 86 17 77 32 -3 5 3 7 15 5 11 -2 22 0 25 6 4 5 15 9 26 9 11 0 17 4 14 10
-3 6 1 7 9 4 9 -3 16 -1 16 5 0 6 3 10 8 9 19 -4 61 15 55 26 -3 6 -3 8 2 4 4
-4 23 -1 43 8 19 8 37 12 40 9 3 -2 10 2 16 11 6 8 21 16 34 17 12 0 22 5 22
10 0 4 5 5 10 2 6 -3 10 -1 10 4 0 6 3 10 8 10 4 -1 23 4 42 12 19 7 38 12 43
11 4 -1 7 3 7 8 0 6 9 10 20 10 11 0 20 5 20 11 0 5 5 7 10 4 6 -3 10 -2 10 3
0 5 6 9 13 9 17 1 41 7 47 13 15 15 52 30 60 25 6 -4 10 -2 10 3 0 12 47 25
60 17 6 -4 6 -13 0 -26 -8 -14 -7 -19 1 -19 8 0 8 -4 -1 -15 -10 -12 -10 -15
0 -15 10 0 10 -3 0 -15 -10 -12 -10 -15 0 -15 10 0 10 -3 0 -15 -10 -12 -10
-15 0 -15 10 0 10 -3 0 -15 -10 -12 -10 -15 0 -15 10 0 10 -3 0 -15 -10 -12
-10 -15 0 -15 10 0 10 -3 0 -15 -10 -12 -10 -15 0 -15 10 0 10 -3 0 -15 -10
-12 -10 -15 0 -15 10 0 10 -3 0 -15 -9 -11 -9 -15 -1 -15 8 0 9 -6 3 -17 -9
-20 -8 -55 2 -72 4 -6 2 -11 -5 -11 -8 0 -8 -4 1 -15 9 -11 9 -15 1 -15 -7 0
-9 -5 -5 -12 11 -17 11 -58 1 -58 -4 0 -4 -8 0 -17 10 -21 9 -65 -1 -82 -4 -6
-4 -11 1 -11 4 0 8 -11 8 -25 0 -14 -4 -25 -8 -25 -5 0 -5 -5 -1 -11 10 -17
11 -61 1 -81 -5 -11 -4 -18 3 -18 8 0 8 -6 0 -20 -8 -15 -8 -20 2 -20 9 0 8
-4 -3 -15 -18 -18 -78 -26 -101 -14 -12 6 -18 6 -18 0 0 -6 -11 -6 -30 -1 -16
5 -30 5 -30 1 0 -8 -47 -7 -56 2 -3 3 -12 3 -19 1 -6 -3 -39 -7 -71 -8 -32 -2
-64 -4 -71 -5 -7 -1 -26 -14 -42 -30 -16 -16 -32 -27 -35 -25 -3 2 -4 1 -1 -3
3 -3 0 -12 -6 -20 -9 -10 -8 -13 2 -13 12 0 12 -2 0 -9 -10 -7 -13 -38 -13
-130 0 -87 -4 -119 -12 -114 -8 5 -8 3 1 -8 16 -20 16 -122 0 -112 -9 5 -9 3
-1 -8 16 -19 16 -361 0 -352 -7 5 -7 2 1 -8 16 -20 16 -122 0 -112 -9 5 -9 3
0 -8 8 -10 12 -45 10 -102 -1 -48 1 -87 4 -87 3 0 5 -11 4 -24 -3 -25 56 -102
69 -89 3 3 6 1 6 -6 0 -8 7 -11 15 -7 8 3 15 2 15 -3 0 -11 192 -8 210 4 15
10 20 11 41 14 5 0 7 6 4 11 -4 6 -3 9 2 8 13 -4 73 20 73 29 0 5 9 9 21 10
11 1 27 8 36 15 8 6 22 13 30 14 8 2 23 10 32 18 10 9 21 13 25 9 4 -4 11 -1
16 7 5 8 13 16 17 16 25 5 53 18 53 25 0 5 7 5 17 2 11 -4 14 -3 9 5 -6 11 5
15 30 11 4 0 10 3 13 8 11 17 92 53 103 47 6 -4 8 -3 5 3 -4 6 22 23 58 38 35
16 61 33 58 38 -3 5 0 7 8 5 8 -3 34 5 59 18 25 13 51 24 58 24 7 0 10 5 7 10
-3 6 1 10 9 10 29 0 126 59 126 77 0 6 5 13 11 15 6 2 13 19 14 38 2 19 5 37
6 40 5 15 4 37 -3 52 -5 9 -4 19 2 23 6 3 6 15 0 29 -5 13 -6 27 -2 30 10 11
8 60 -3 68 -6 5 -5 8 3 8 9 0 10 5 3 19 -6 10 -7 21 -4 25 11 11 9 60 -2 68
-6 5 -5 8 3 8 9 0 10 5 2 19 -5 11 -7 22 -2 25 9 5 7 69 -2 85 -4 5 -2 12 2
15 10 6 8 48 -2 65 -4 5 -2 12 3 16 7 3 7 15 1 29 -5 13 -6 27 -2 30 10 11 8
60 -3 68 -6 5 -5 8 3 8 9 0 10 5 3 19 -6 10 -7 21 -4 25 11 11 9 60 -2 68 -6
5 -5 8 3 8 9 0 10 5 2 19 -5 11 -7 22 -2 25 9 5 7 69 -2 85 -4 5 -2 12 2 15 8
5 9 29 2 61 -1 6 -2 12 -1 15 8 22 4 170 -4 170 -7 0 -7 3 0 8 6 4 10 39 10
77 0 39 -4 73 -10 77 -7 5 -7 8 0 8 6 0 10 32 10 75 0 43 -4 75 -10 75 -7 0
-7 3 0 8 6 4 10 39 10 77 0 39 -4 73 -10 77 -6 5 -5 8 2 8 7 0 10 6 8 13 -3 6
-6 50 -8 97 -1 47 -6 90 -9 96 -4 5 -3 16 2 24 9 14 2 43 -9 36 -3 -2 -5 15
-5 37 1 23 -2 50 -7 59 -6 10 -10 34 -11 53 -1 19 -6 35 -11 35 -5 0 -7 9 -4
20 3 11 2 20 -3 20 -4 0 -11 7 -14 16 -4 10 -2 13 7 7 7 -4 5 4 -5 18 -15 24
-15 26 0 38 10 6 11 9 5 6 -20 -10 -15 1 17 36 16 18 27 36 24 41 -3 4 2 11
10 14 9 3 16 12 16 20 0 8 5 14 11 14 6 0 8 7 5 17 -4 10 -4 14 0 10 8 -7 40
33 36 46 -1 4 3 7 9 7 5 0 7 5 4 10 -3 6 -1 10 4 10 6 0 11 7 11 16 0 9 5 12
13 8 6 -4 9 -4 5 0 -9 11 32 87 43 80 5 -3 6 1 3 9 -3 8 2 22 11 30 9 9 16 19
15 22 -1 20 1 26 8 21 4 -2 9 5 9 17 1 12 7 23 13 25 5 2 8 8 4 13 -3 5 1 12
10 15 8 3 13 11 10 19 -3 7 2 20 11 28 9 9 16 18 16 19 -1 14 13 48 18 48 4 0
8 7 9 15 1 8 3 22 4 30 1 8 4 15 8 15 10 0 31 50 25 60 -3 5 -1 10 5 12 6 2
12 13 14 24 3 12 9 30 15 40 22 40 41 97 34 107 -4 6 -1 7 7 2 10 -6 12 -4 7
8 -3 10 -2 17 3 17 6 0 10 11 10 25 0 14 5 25 12 25 6 0 8 3 5 7 -4 3 -2 12 4
20 6 7 9 13 6 13 -3 0 6 32 19 71 13 39 24 80 24 91 0 10 4 17 9 14 4 -3 7 6
5 19 -1 14 1 25 5 25 4 0 8 9 9 20 1 11 3 29 4 40 1 11 6 20 10 20 4 0 8 5 8
11 0 5 -6 7 -12 3 -7 -4 -5 2 6 14 12 13 17 31 14 47 -3 14 -1 25 4 25 6 0 8
7 5 15 -4 8 -2 17 3 20 5 3 9 13 9 23 0 9 3 31 6 47 9 49 17 99 18 123 0 12 4
22 8 22 3 0 6 8 6 18 0 71 4 112 11 108 5 -3 9 1 9 9 0 8 -5 11 -10 8 -7 -4
-8 1 -3 13 4 10 9 46 11 78 3 32 7 61 9 63 3 3 1 16 -4 29 -5 13 -6 24 -1 24
4 0 7 18 5 40 -2 28 1 38 9 33 9 -5 9 -3 2 8 -6 8 -10 46 -10 84 0 39 -4 73
-10 77 -6 5 -5 8 2 8 7 0 10 6 8 13 -3 6 -7 44 -9 82 -3 39 -5 70 -7 70 -1 0
-3 23 -4 50 -2 28 -6 58 -10 68 -4 9 -5 24 -1 32 3 8 1 15 -5 15 -6 0 -7 5 -4
10 3 6 2 10 -2 10 -5 0 -8 14 -7 30 1 17 -1 30 -5 30 -4 0 -8 12 -9 27 -1 15
-8 30 -15 35 -7 5 -8 8 -1 8 6 0 11 7 11 15 0 8 -4 15 -9 15 -4 0 -8 9 -8 20
0 11 -4 20 -9 20 -4 0 -7 10 -7 23 1 12 -2 28 -7 35 -5 6 -6 12 -1 12 5 0 3 4
-3 8 -7 5 -14 20 -15 35 -1 15 -5 27 -9 27 -5 0 -15 22 -23 50 -3 13 -70 145
-75 150 -3 3 -12 15 -18 28 -39 69 -47 80 -96 132 -15 17 -25 35 -22 40 3 6 2
10 -4 10 -6 0 -31 20 -55 45 -25 25 -48 45 -51 45 -3 0 -13 8 -23 18 -10 9
-29 24 -42 32 -12 8 -28 20 -35 27 -7 7 -15 9 -19 6 -3 -4 -6 -1 -6 5 0 7 -7
12 -15 12 -8 0 -15 5 -15 11 0 5 -4 8 -9 4 -5 -3 -12 -1 -16 5 -4 6 -11 8 -16
5 -5 -4 -9 -2 -9 3 0 4 -16 14 -35 22 -19 8 -35 18 -35 22 0 5 -10 4 -21 -3
-15 -8 -19 -8 -15 0 4 6 0 12 -8 12 -24 2 -30 4 -41 10 -8 5 -61 17 -105 24
-3 0 -10 4 -17 8 -6 4 -15 2 -19 -4 -4 -8 -9 -7 -15 2 -7 11 -9 11 -9 1 0 -9
-6 -10 -17 -4 -29 14 -146 6 -183 -12 -19 -9 -44 -31 -56 -49 -22 -35 -33
-117 -15 -117 6 0 11 -8 11 -18 0 -10 9 -28 20 -40 11 -12 20 -24 20 -26 0 -3
14 -19 30 -34 16 -16 30 -34 30 -41 0 -6 5 -11 10 -11 6 0 10 -5 10 -10 0 -6
9 -21 20 -33 11 -12 18 -27 16 -34 -3 -7 -2 -13 3 -13 4 0 16 -18 27 -40 10
-22 23 -40 27 -40 5 0 5 -4 2 -10 -3 -5 0 -20 7 -32 7 -13 11 -26 10 -30 -1
-5 2 -8 6 -8 5 0 9 -7 10 -15 1 -8 3 -22 4 -30 1 -8 6 -15 11 -15 6 0 7 -3 4
-7 -4 -3 -1 -13 6 -21 9 -13 9 -14 0 -8 -9 5 -11 2 -7 -8 3 -9 10 -16 15 -16
4 0 6 -7 3 -15 -4 -8 -1 -22 6 -30 7 -8 10 -15 7 -15 -3 0 -1 -17 5 -37 13
-51 21 -102 22 -135 0 -16 3 -28 7 -28 3 0 7 -21 8 -47 4 -92 6 -108 14 -120
5 -7 4 -13 0 -13 -5 0 -9 -9 -9 -20 0 -11 4 -20 8 -20 5 0 4 -8 -1 -18 -5 -10
-7 -23 -3 -29 7 -11 6 -142 -1 -195 -3 -16 1 -28 7 -28 7 0 8 -3 1 -8 -6 -4
-11 -20 -13 -37 -1 -16 -3 -51 -5 -77 -1 -26 -5 -50 -9 -53 -4 -4 -4 -18 -2
-31 3 -15 0 -24 -8 -24 -9 0 -8 -3 2 -10 8 -5 10 -10 4 -10 -5 0 -9 -12 -8
-27 1 -16 -3 -39 -9 -53 -5 -14 -9 -38 -8 -54 2 -20 -1 -26 -9 -21 -9 6 -9 2
0 -15 9 -18 9 -21 0 -15 -10 6 -12 1 -8 -19 3 -14 1 -26 -4 -26 -5 0 -6 -4 -3
-10 3 -5 3 -16 -2 -22 -4 -7 -8 -15 -8 -18 -2 -18 -22 -99 -25 -102 -1 -2 -3
-12 -5 -23 -4 -24 -13 -58 -16 -65 -1 -3 -3 -9 -4 -15 -1 -5 -8 -23 -15 -40
-7 -16 -12 -38 -12 -47 0 -10 -3 -18 -8 -18 -5 0 -7 -9 -5 -20 2 -11 0 -20 -4
-20 -8 0 -25 -56 -22 -72 0 -5 -4 -8 -9 -8 -6 0 -10 -6 -8 -12 2 -12 -18 -64
-43 -111 -5 -10 -7 -22 -4 -27 4 -6 1 -10 -4 -10 -6 0 -11 -7 -11 -15 0 -8 -4
-15 -10 -15 -5 0 -7 -7 -4 -15 4 -8 1 -15 -6 -15 -6 0 -8 -4 -5 -10 3 -5 1
-10 -6 -10 -7 0 -10 -3 -6 -6 3 -4 -1 -21 -10 -38 -10 -17 -16 -34 -15 -38 1
-5 -3 -8 -8 -8 -5 0 -9 -3 -8 -7 1 -5 -4 -20 -12 -35 -9 -19 -17 -25 -30 -20
-21 8 -65 40 -92 65 -10 10 -23 15 -27 12 -5 -2 -11 2 -15 10 -3 8 -10 15 -16
15 -6 0 -18 7 -27 15 -8 8 -19 13 -24 10 -5 -4 -9 -1 -9 4 0 6 -7 11 -16 11
-8 0 -12 5 -9 10 3 6 -3 10 -14 10 -11 0 -45 14 -75 31 -31 16 -56 27 -56 23
0 -3 -6 -1 -13 5 -8 6 -17 8 -20 4 -4 -3 -7 -1 -7 5 0 7 -8 12 -18 12 -10 0
-22 3 -26 7 -12 12 -76 31 -70 21 4 -6 -5 -2 -19 7 -15 9 -31 14 -37 10 -5 -3
-10 -1 -10 5 0 7 -7 10 -15 6 -8 -3 -15 -1 -15 3 0 5 -8 8 -17 6 -10 -1 -24 2
-30 8 -7 5 -13 6 -13 2 0 -4 -8 -1 -17 6 -11 10 -14 10 -9 2 4 -7 2 -13 -3
-13 -6 0 -11 4 -11 8 0 5 -6 9 -12 10 -7 0 -40 4 -73 8 -33 4 -70 7 -82 7 -13
1 -23 6 -23 12 0 5 -4 4 -9 -4 -6 -9 -10 -10 -16 -2 -5 9 -10 9 -21 0 -8 -6
-14 -8 -14 -3 0 5 -38 9 -85 9 -47 0 -85 -4 -85 -9 0 -5 -7 -3 -15 4 -8 7 -15
9 -15 4 0 -5 -17 -10 -38 -11 -47 -2 -127 -10 -127 -13 0 -1 -11 -3 -25 -5
-14 -2 -37 -6 -52 -9 -16 -3 -40 -8 -55 -11 -14 -3 -33 -10 -42 -14 -9 -5 -24
-7 -33 -6 -10 2 -18 -1 -18 -7 0 -6 -7 -8 -15 -4 -8 3 -15 1 -15 -4 0 -6 -3
-9 -7 -8 -5 1 -24 -4 -43 -11 -19 -8 -39 -15 -45 -16 -5 -2 -23 -9 -40 -16
-16 -7 -33 -12 -37 -11 -5 1 -8 -3 -8 -10 0 -6 -3 -8 -7 -5 -3 4 -13 1 -22 -7
-9 -8 -19 -15 -24 -15 -4 0 -21 -8 -37 -16 -17 -9 -35 -13 -40 -10 -5 3 -12 0
-16 -6 -5 -8 -3 -9 7 -4 8 4 5 -1 -6 -12 -11 -11 -24 -18 -28 -16 -5 3 -15 -3
-22 -13 -8 -11 -15 -15 -15 -11 0 5 -7 1 -16 -7 -8 -9 -20 -14 -25 -11 -5 4
-9 -2 -9 -11 0 -10 -3 -14 -7 -11 -3 4 -25 -8 -48 -27 l-41 -34 -22 46 c-12
26 -22 52 -22 58 0 6 -9 23 -21 38 -11 14 -17 26 -13 26 5 0 3 5 -4 12 -7 7
-12 20 -12 31 0 11 -4 15 -12 11 -8 -5 -9 -2 -5 9 3 9 2 19 -4 22 -5 4 -7 11
-4 16 4 5 1 9 -4 9 -6 0 -11 9 -11 20 0 11 -5 20 -10 20 -6 0 -9 3 -9 8 4 22
-2 42 -11 37 -5 -3 -7 0 -4 9 5 13 -4 40 -38 112 -5 11 -8 24 -7 30 2 5 -2 18
-7 29 -6 11 -22 59 -35 108 -13 48 -28 87 -33 87 -4 0 -3 7 4 15 8 9 8 15 2
15 -6 0 -11 8 -11 18 -1 35 -5 52 -11 52 -5 0 -10 36 -13 88 0 6 -5 12 -10 12
-5 0 -7 9 -4 19 2 10 1 25 -4 32 -4 8 -3 19 3 27 9 10 8 12 -3 10 -10 -2 -14
8 -14 35 1 20 -3 37 -8 37 -5 0 -3 8 4 17 9 11 10 14 2 9 -9 -5 -13 0 -12 16
0 13 -2 43 -5 68 -3 25 -6 62 -7 83 -1 20 -7 37 -13 37 -7 0 -7 3 -1 8 11 8
16 52 6 52 -9 0 -7 223 2 237 4 6 3 14 -3 18 -7 4 -6 13 1 27 9 16 8 19 -2 13
-8 -6 -10 -4 -4 5 4 7 9 38 11 69 2 31 6 67 9 79 4 17 2 22 -7 17 -7 -4 -6 -1
2 7 8 7 16 29 17 48 5 81 8 100 15 100 3 0 5 11 3 25 -1 14 2 25 7 25 6 0 8 7
4 15 -3 8 -2 15 3 15 4 0 8 7 9 15 1 8 3 22 4 30 1 8 5 15 9 15 5 0 6 7 3 15
-4 8 -2 15 4 15 6 0 8 9 5 20 -3 11 -1 20 5 20 5 0 13 16 16 35 4 20 11 33 16
30 5 -3 7 4 5 15 -2 11 3 24 13 30 9 5 14 10 9 10 -10 0 22 62 37 72 6 4 7 8
3 8 -9 0 31 61 48 72 5 4 7 8 2 8 -6 0 27 41 70 85 7 7 9 15 6 19 -4 3 2 6 12
6 10 0 15 3 12 6 -3 4 -1 16 6 28 6 11 12 40 13 64 1 34 -5 49 -26 72 -15 16
-25 32 -22 35 3 2 -9 8 -26 11 -18 4 -32 9 -32 13 0 8 -163 6 -177 -2 -6 -4
-14 -1 -16 5 -3 8 -6 8 -6 2z m-148 -351 c-4 -10 -9 -20 -12 -23 -3 -3 -12
-16 -19 -29 -11 -18 -11 -21 -1 -15 7 4 3 -7 -10 -24 -12 -18 -20 -32 -16 -32
3 0 -2 -11 -11 -25 -9 -14 -13 -25 -10 -25 4 0 0 -13 -9 -30 -9 -16 -13 -30
-10 -30 3 0 -2 -16 -10 -36 -8 -20 -15 -45 -15 -55 0 -11 -5 -19 -10 -19 -7 0
-7 -7 1 -21 8 -15 8 -19 0 -15 -6 4 -11 1 -12 -6 0 -7 -2 -22 -4 -33 -2 -11
-7 -38 -10 -60 -11 -67 -13 -80 -15 -80 -1 0 -3 -12 -4 -26 -2 -14 -6 -32 -11
-39 -5 -9 -4 -11 3 -6 7 4 12 2 12 -3 0 -6 -6 -11 -12 -11 -9 0 -8 -4 2 -10 9
-6 10 -10 3 -10 -7 0 -10 -9 -8 -22 3 -12 0 -27 -6 -35 -9 -9 -8 -13 0 -13 7
0 9 -5 4 -12 -11 -18 -12 -58 -1 -64 5 -3 5 -11 0 -17 -4 -7 -8 -19 -7 -27 1
-8 -3 -23 -8 -34 -6 -12 -5 -16 1 -12 5 3 13 -1 16 -10 3 -8 2 -13 -3 -10 -5
3 -11 -3 -14 -14 -3 -11 -2 -22 2 -25 4 -2 6 -27 5 -54 -2 -28 1 -53 7 -57 7
-4 6 -10 -1 -19 -12 -15 -10 -36 5 -47 6 -5 5 -8 -3 -8 -10 0 -10 -5 -2 -20 8
-15 8 -20 -2 -20 -8 0 -9 -3 -3 -8 6 -4 11 -23 10 -42 0 -19 5 -38 10 -42 6
-5 5 -8 -4 -8 -11 0 -10 -5 2 -24 9 -13 13 -27 10 -30 -10 -9 -12 -36 -4 -36
4 0 8 -10 8 -22 1 -13 3 -39 4 -58 1 -19 4 -39 7 -45 3 -5 8 -28 10 -50 2 -22
7 -42 10 -45 7 -5 9 -17 14 -77 1 -18 5 -33 8 -33 3 0 7 -14 8 -32 2 -17 6
-36 11 -42 8 -10 11 -27 12 -68 0 -10 5 -18 11 -18 5 0 8 -7 5 -15 -4 -8 -2
-17 3 -20 6 -4 10 -17 10 -30 0 -13 4 -26 10 -30 5 -3 7 -12 3 -20 -3 -8 0
-15 7 -15 6 0 9 -4 5 -9 -3 -5 -1 -13 5 -16 8 -5 7 -12 -2 -23 -11 -13 -11
-14 1 -7 11 6 13 4 8 -8 -3 -10 -3 -17 1 -17 10 0 33 -61 26 -71 -3 -5 0 -9 6
-9 6 0 8 -4 5 -10 -3 -5 -1 -10 5 -10 6 0 9 -4 5 -9 -3 -5 -1 -12 5 -16 6 -4
7 -11 4 -17 -4 -6 -1 -14 5 -18 7 -4 14 -13 15 -21 8 -42 19 -69 28 -69 6 0 8
-7 4 -15 -3 -8 0 -15 6 -15 6 0 9 -3 5 -6 -3 -3 3 -21 14 -40 10 -19 19 -41
19 -49 0 -8 4 -15 8 -15 4 0 8 -10 9 -22 1 -11 7 -24 13 -28 6 -4 13 -13 15
-21 9 -38 18 -59 26 -59 5 0 9 -9 9 -20 0 -11 4 -20 9 -20 5 0 12 -14 16 -30
4 -17 11 -30 16 -30 6 0 7 -4 4 -10 -3 -5 -3 -10 2 -10 4 0 14 -15 22 -32 8
-18 22 -45 32 -59 10 -14 19 -32 21 -40 2 -8 10 -19 18 -26 8 -7 12 -13 8 -13
-9 0 16 -33 51 -67 21 -20 46 -28 74 -24 4 0 7 -3 7 -7 0 -4 9 -8 20 -8 11 0
20 4 20 7 0 8 40 24 53 21 4 -1 7 2 7 6 0 5 9 18 21 30 26 29 31 94 10 150
-14 37 -14 44 -1 52 8 5 18 6 24 3 5 -3 6 -2 3 4 -4 5 5 16 18 23 14 7 25 17
25 22 0 5 4 7 9 4 5 -3 12 1 15 10 3 8 10 12 16 9 5 -3 10 -1 10 4 0 6 5 11
10 11 10 0 20 7 53 36 7 6 20 10 30 8 9 -1 15 2 12 7 -3 4 6 11 20 15 14 3 25
10 25 16 0 5 4 7 9 3 5 -3 17 3 27 12 10 10 18 17 18 15 2 -8 56 11 56 19 0 5
7 6 15 3 8 -4 15 -1 15 7 0 7 3 10 6 6 3 -3 18 -1 33 5 14 5 33 11 41 14 8 2
33 8 55 15 22 6 52 11 68 12 15 1 27 6 27 11 0 5 3 6 7 3 3 -4 12 -2 20 4 9 9
13 8 13 0 0 -8 5 -9 19 -1 11 5 58 12 104 14 46 2 89 6 96 10 6 4 11 3 11 -2
0 -12 43 -10 52 3 5 6 8 5 8 -2 0 -7 5 -13 11 -13 5 0 7 6 3 13 -6 9 -4 9 8
-1 12 -9 18 -10 23 -2 4 7 11 8 18 1 7 -5 30 -10 52 -12 22 -1 48 -6 58 -11
11 -6 17 -5 17 2 0 7 6 8 19 0 11 -5 36 -13 57 -16 20 -3 48 -10 62 -15 13 -5
28 -7 33 -3 5 3 9 0 9 -7 0 -7 3 -9 7 -6 3 4 12 2 19 -3 6 -6 16 -10 20 -9 17
2 54 -13 54 -23 0 -5 5 -6 10 -3 6 4 22 0 35 -9 13 -9 33 -16 45 -16 11 0 20
-4 20 -9 0 -5 10 -13 22 -17 13 -4 29 -14 36 -23 8 -9 11 -10 7 -3 -3 6 -1 12
4 12 6 0 11 -4 11 -9 0 -5 14 -14 30 -21 17 -7 30 -17 30 -22 0 -5 4 -7 9 -4
5 3 11 -1 15 -9 3 -8 12 -15 21 -15 8 0 15 -4 15 -10 0 -5 5 -10 10 -10 11 0
18 -5 64 -44 21 -19 26 -30 21 -43 -5 -10 -7 -21 -7 -25 1 -5 -2 -8 -6 -8 -8
0 -11 -9 -13 -42 -1 -25 12 -73 22 -76 5 -2 9 -9 9 -15 1 -15 43 -46 67 -50
10 -1 24 -6 31 -10 7 -5 12 -3 12 4 0 8 4 8 15 -1 12 -10 16 -9 20 2 3 8 12
15 20 16 8 1 22 3 30 4 8 1 12 4 10 8 -2 3 7 18 20 32 13 14 21 29 18 32 -4 3
-1 6 5 6 6 0 13 14 17 30 4 17 10 28 15 25 4 -3 14 10 21 28 7 17 20 38 29 45
12 11 12 12 0 6 -10 -5 -9 0 4 14 11 12 15 22 10 22 -5 0 0 7 10 15 11 8 16
15 12 15 -4 0 4 20 18 44 14 25 26 52 26 61 0 9 4 14 9 11 5 -4 12 7 16 24 4
16 11 30 17 30 6 0 9 3 6 6 -6 5 10 48 52 139 11 22 20 47 22 55 2 8 7 18 11
21 4 3 9 16 10 27 1 12 5 22 9 22 4 0 10 16 14 35 3 19 10 35 16 35 5 0 7 3 5
8 -3 4 0 18 6 32 5 14 12 34 14 45 2 10 9 23 16 27 9 6 9 8 -1 8 -7 0 -10 5
-7 10 4 6 10 8 14 6 4 -3 7 8 6 24 -1 17 2 30 7 30 5 0 6 5 3 10 -3 6 -1 10 5
10 6 0 9 4 6 9 -3 5 1 27 8 49 8 22 12 43 9 46 -4 3 -2 6 3 6 5 0 11 8 12 18
1 9 3 24 5 32 2 8 7 32 12 53 4 20 11 37 16 37 6 0 6 8 0 18 -7 13 -7 22 0 29
6 6 11 27 12 47 1 20 5 36 10 36 4 0 7 15 7 33 0 18 5 38 12 45 9 9 9 12 -1
12 -7 0 -9 5 -4 13 4 6 8 21 8 32 0 11 4 26 8 33 5 7 3 12 -5 12 -11 0 -11 2
0 9 7 4 12 12 11 17 -1 5 0 11 1 14 2 6 7 62 12 138 1 28 7 52 12 52 4 0 3 7
-4 15 -8 9 -9 15 -2 15 11 0 9 31 -4 52 -5 7 -3 8 7 3 12 -8 12 -6 0 8 -7 9
-9 17 -4 17 11 0 11 140 0 157 -4 6 -3 14 2 17 8 5 8 27 1 46 -1 3 -1 10 0 15
7 33 6 55 -3 55 -5 0 -5 5 2 13 6 8 8 17 4 21 -8 8 -11 24 -17 98 -2 31 -7 62
-12 69 -5 8 -3 10 6 4 9 -5 11 -4 6 4 -7 11 -16 51 -19 84 -1 9 -4 17 -8 17
-3 0 -5 12 -5 28 1 15 -2 32 -6 38 -4 6 -10 27 -12 46 -3 20 -12 52 -20 72 -8
20 -12 36 -8 36 3 0 1 5 -6 12 -7 7 -12 22 -12 34 0 13 -5 26 -11 29 -6 4 -8
13 -5 21 3 8 1 14 -5 14 -6 0 -9 6 -6 14 3 8 -1 17 -9 20 -9 3 -12 10 -9 16 3
5 1 10 -5 10 -6 0 -9 4 -6 8 3 5 -4 23 -14 40 -22 36 -20 37 34 18 23 -8 33
-16 25 -19 -8 -3 -5 -6 9 -6 12 -1 22 -5 22 -11 0 -5 6 -10 14 -10 8 0 17 -7
20 -16 3 -8 9 -13 13 -11 10 6 34 -19 26 -27 -4 -3 0 -6 8 -6 8 0 25 -14 39
-31 14 -17 35 -40 47 -51 12 -12 20 -25 17 -30 -3 -4 2 -11 10 -14 9 -3 14
-10 11 -14 -3 -4 2 -11 11 -14 8 -3 13 -10 10 -15 -3 -5 1 -12 10 -15 8 -3 12
-10 9 -16 -3 -5 -1 -10 6 -10 7 0 9 -3 6 -7 -4 -3 1 -12 11 -20 9 -8 10 -11 3
-7 -10 5 -8 -3 5 -22 22 -30 37 -62 39 -79 3 -25 17 -55 26 -55 6 0 8 -4 5 -9
-3 -4 0 -23 6 -42 6 -19 13 -41 16 -49 7 -22 12 -42 15 -65 2 -12 6 -26 10
-31 3 -6 8 -30 9 -52 2 -23 6 -42 9 -42 3 0 6 -13 7 -30 1 -16 2 -41 3 -55 1
-14 7 -25 13 -25 7 0 7 -3 1 -8 -13 -9 -18 -32 -7 -32 5 0 8 -24 7 -52 0 -29
4 -59 10 -67 7 -11 7 -13 -2 -7 -7 4 -13 2 -13 -3 0 -6 5 -11 11 -11 8 0 8 -4
0 -14 -9 -11 -9 -16 0 -21 8 -6 7 -10 -2 -16 -10 -6 -10 -9 -2 -9 7 0 10 -9 8
-22 -3 -12 -5 -70 -6 -129 -2 -75 -6 -106 -13 -102 -7 4 -6 1 1 -8 8 -9 9 -20
3 -29 -13 -21 -12 -33 2 -24 8 5 8 3 2 -7 -5 -8 -10 -30 -12 -49 -1 -19 -3
-42 -4 -50 0 -8 -5 -21 -11 -27 -6 -9 -6 -13 3 -13 8 0 9 -4 3 -12 -5 -7 -10
-24 -11 -38 -2 -25 -9 -65 -12 -65 -1 0 -3 -13 -5 -30 -2 -16 -7 -41 -10 -55
-4 -14 -9 -41 -12 -60 -3 -19 -8 -37 -12 -40 -4 -3 -6 -12 -6 -20 1 -8 -2 -26
-6 -40 -4 -14 -8 -32 -10 -40 -2 -8 -8 -18 -14 -22 -6 -5 -4 -8 5 -8 12 0 12
-2 2 -8 -11 -8 -23 -46 -25 -79 0 -7 -4 -13 -8 -13 -5 0 -6 -7 -3 -15 4 -8 1
-15 -4 -15 -6 0 -9 -9 -7 -20 2 -11 0 -20 -6 -20 -5 0 -9 -9 -9 -20 0 -11 -4
-20 -10 -20 -5 0 -7 -7 -4 -15 4 -8 1 -15 -6 -15 -6 0 -9 -4 -6 -9 4 -5 -3
-29 -13 -54 -11 -25 -17 -48 -14 -51 4 -3 1 -6 -5 -6 -7 0 -11 -3 -10 -7 1 -5
-4 -20 -10 -35 -7 -16 -17 -40 -24 -55 -6 -16 -11 -31 -10 -35 1 -5 -3 -8 -9
-8 -5 0 -8 -4 -4 -9 3 -5 0 -13 -6 -16 -5 -4 -8 -13 -5 -21 3 -8 1 -14 -4 -14
-5 0 -14 -16 -21 -35 -7 -19 -17 -35 -22 -35 -4 0 -5 -5 -2 -10 3 -6 -1 -13
-10 -16 -13 -6 -14 -8 -3 -15 8 -6 9 -9 1 -9 -6 0 -17 -16 -23 -35 -6 -19 -16
-35 -21 -35 -6 0 -7 -4 -4 -10 3 -5 2 -10 -3 -10 -4 0 -15 -16 -22 -35 -8 -20
-20 -41 -27 -47 -7 -5 -10 -14 -7 -19 3 -5 -2 -12 -10 -15 -9 -3 -13 -10 -11
-15 3 -4 -3 -17 -14 -28 -11 -11 -17 -22 -13 -25 3 -3 -1 -6 -8 -6 -7 0 -10
-3 -7 -7 10 -9 -14 -34 -26 -26 -6 3 -7 1 -3 -5 6 -11 -30 -73 -47 -80 -4 -2
-5 -8 -1 -13 3 -5 0 -9 -6 -9 -6 0 -9 -4 -6 -9 8 -12 -35 -29 -63 -24 -14 2
-28 -2 -33 -9 -6 -11 -8 -11 -8 0 0 10 -5 10 -20 2 -14 -8 -20 -8 -20 0 0 8
-6 8 -20 0 -15 -8 -20 -8 -20 2 0 10 -2 10 -9 -1 -6 -9 -11 -10 -15 -2 -4 6
-13 8 -19 4 -6 -4 -54 -8 -106 -10 -53 -1 -101 -5 -108 -7 -7 -3 -15 -1 -18 5
-4 5 -11 6 -18 2 -6 -3 -46 -8 -90 -9 -43 -1 -81 -5 -85 -8 -3 -3 -11 -1 -19
5 -7 6 -13 8 -13 3 0 -5 -13 -9 -30 -10 -19 -1 -27 3 -23 10 5 8 3 8 -8 0 -8
-6 -50 -12 -94 -13 -119 -3 -142 -7 -172 -26 -34 -21 -73 -67 -66 -77 2 -5 -1
-8 -8 -8 -7 0 -9 -3 -6 -7 4 -3 1 -13 -7 -22 -7 -9 -28 -45 -47 -81 -19 -36
-37 -67 -41 -68 -5 -2 -6 -8 -3 -12 3 -5 -5 -19 -17 -31 -13 -12 -16 -19 -8
-15 8 4 6 0 -5 -9 -11 -9 -18 -17 -16 -18 8 -4 -10 -47 -20 -47 -5 0 -9 -9 -9
-19 0 -11 -4 -22 -9 -26 -6 -3 -21 -30 -36 -60 -14 -30 -30 -55 -35 -55 -6 0
-9 -3 -8 -7 2 -9 -32 -85 -42 -93 -6 -4 -16 -27 -22 -48 -1 -4 -8 -13 -15 -20
-7 -7 -13 -20 -13 -28 0 -23 -17 -7 -36 31 -9 19 -21 32 -27 28 -5 -3 -7 -1
-4 4 7 11 -16 66 -24 58 -3 -2 -6 5 -6 17 -1 12 -6 24 -11 27 -5 3 -20 27 -32
54 -12 26 -26 47 -31 47 -5 0 -6 7 -3 15 4 8 2 15 -4 15 -9 0 -25 37 -23 53 1
4 -3 7 -8 7 -10 0 -27 39 -23 52 1 5 -4 7 -11 5 -6 -1 -11 4 -10 11 2 6 -1 12
-5 12 -5 0 -9 6 -9 13 0 6 -12 31 -26 54 -15 24 -27 50 -27 58 0 9 -5 13 -10
10 -6 -3 -10 3 -10 14 0 12 -4 21 -10 21 -5 0 -10 9 -10 20 0 11 -4 20 -9 20
-5 0 -12 11 -15 25 -4 14 -11 25 -16 25 -6 0 -10 7 -10 15 0 8 -8 15 -17 15
-14 0 -15 2 -4 9 10 7 5 11 -18 16 -17 3 -31 10 -31 15 0 4 -26 8 -59 8 -32
-1 -63 2 -70 6 -6 4 -11 1 -11 -6 0 -9 -3 -9 -10 2 -9 13 -10 13 -10 0 0 -9
-3 -11 -8 -5 -7 9 -70 13 -294 18 -57 1 -98 6 -98 12 0 6 -5 3 -10 -5 -5 -8
-10 -10 -10 -5 0 6 -43 10 -108 10 -59 0 -116 3 -128 6 -11 4 -27 3 -34 -1 -8
-5 -19 -6 -25 -2 -5 4 -23 8 -40 8 -60 3 -65 4 -65 19 0 8 -4 15 -10 15 -5 0
-10 5 -10 10 0 10 -8 22 -38 55 -7 8 -11 15 -7 15 5 0 -3 12 -32 44 -7 8 -9
16 -6 20 4 3 2 6 -3 6 -5 0 -18 20 -29 45 -11 25 -27 45 -35 45 -13 0 -13 1 0
10 8 5 10 10 4 10 -6 0 -28 34 -49 75 -21 41 -43 75 -49 75 -6 0 -4 5 4 10 10
6 11 10 3 10 -7 0 -13 7 -13 15 0 8 -4 15 -9 15 -6 0 -8 9 -6 20 2 11 0 18 -5
15 -5 -3 -17 17 -27 45 -10 27 -21 50 -25 50 -4 0 -4 7 -1 17 4 11 3 14 -5 9
-8 -5 -12 0 -12 14 0 11 -4 28 -10 38 -15 27 -43 95 -47 117 -2 10 -7 22 -11
25 -4 3 -8 14 -10 25 -2 11 -10 34 -18 52 -8 17 -11 39 -7 49 4 10 2 15 -3 11
-6 -3 -15 7 -21 24 -8 22 -8 29 0 29 8 0 7 3 -1 9 -8 5 -15 20 -15 35 -1 14
-5 26 -9 26 -5 0 -8 13 -8 28 0 15 -5 33 -10 38 -6 6 -12 27 -14 48 -2 20 -6
39 -10 43 -3 3 -6 17 -6 29 0 13 -5 26 -11 30 -8 4 -7 9 2 15 11 7 11 9 1 9
-7 0 -10 5 -7 10 3 6 2 10 -3 10 -5 0 -8 14 -7 30 1 17 -1 33 -5 35 -6 4 -9
30 -13 103 -1 12 -4 22 -7 22 -3 0 -7 10 -8 23 -7 106 -10 128 -15 134 -4 3
-2 15 4 26 8 14 8 18 -1 12 -8 -5 -11 9 -10 51 1 33 1 64 0 69 -1 6 -2 28 -2
50 0 22 -5 43 -11 47 -7 4 -7 8 -2 8 6 0 11 38 12 91 2 49 5 94 8 100 4 5 0 9
-7 9 -9 0 -10 2 -2 8 7 4 11 18 10 32 -1 14 0 29 3 35 4 8 11 66 14 123 0 12
4 22 7 22 6 0 11 33 13 78 1 12 4 22 7 22 3 0 7 8 8 18 1 14 8 50 11 60 1 1 1
4 0 8 0 3 7 17 16 31 12 17 13 23 4 17 -11 -6 -12 -5 -2 8 7 8 10 18 6 21 -3
4 -1 7 6 7 8 0 11 7 7 15 -3 8 -2 15 3 15 9 0 26 48 23 63 -1 4 3 7 9 7 6 0 9
6 6 13 -5 13 17 39 26 30 3 -2 4 3 3 14 -2 10 0 20 5 23 4 3 9 12 11 19 2 8
10 22 18 32 34 40 41 49 35 49 -7 0 8 18 70 83 28 28 49 56 47 62 -2 5 0 7 4
2 4 -4 18 3 31 15 13 12 23 17 23 13 0 -5 7 1 16 13 8 12 20 20 25 17 5 -4 9
-1 9 5 0 6 5 8 10 5 6 -3 10 -1 10 6 0 7 3 9 6 6 4 -3 16 0 28 8 26 19 27 19
19 -2z m232 -3467 c22 0 45 -3 52 -8 6 -5 14 -5 17 1 4 5 16 8 28 6 11 -3 59
-5 105 -7 50 -1 83 -6 83 -12 0 -6 4 -5 9 2 4 8 12 14 16 14 4 0 12 -6 16 -14
7 -10 9 -10 9 0 0 14 21 12 33 -3 4 -6 10 -5 16 4 6 9 10 10 16 2 5 -9 10 -9
21 0 10 8 14 8 14 0 0 -7 8 -8 26 -1 14 6 23 6 20 2 -3 -5 16 -9 42 -9 156 -2
194 -6 199 -22 4 -9 15 -28 25 -43 11 -16 16 -28 12 -28 -4 0 -1 -8 7 -17 8
-10 25 -38 39 -63 13 -25 28 -48 34 -52 6 -4 7 -8 3 -8 -9 0 24 -60 33 -60 3
0 7 -10 7 -22 1 -13 7 -24 13 -26 5 -2 10 -13 10 -23 0 -11 5 -17 10 -14 6 3
10 -3 10 -14 0 -12 5 -21 10 -21 6 0 10 -7 10 -15 0 -8 5 -15 11 -15 5 0 8 -4
5 -9 -3 -5 3 -20 14 -34 15 -19 17 -28 8 -33 -6 -4 -14 -2 -16 4 -2 7 -8 10
-13 6 -5 -3 -9 0 -9 6 0 6 -4 9 -9 5 -5 -3 -13 0 -16 6 -4 5 -13 8 -21 5 -8
-3 -14 -1 -14 4 0 5 -18 15 -40 21 -22 7 -40 16 -40 20 0 5 -7 6 -15 3 -8 -4
-15 -1 -15 6 0 6 -4 9 -9 5 -5 -3 -12 -1 -16 5 -4 6 -11 8 -16 5 -5 -4 -9 -1
-9 4 0 6 -7 11 -15 11 -9 0 -27 7 -40 16 -14 9 -25 13 -25 9 0 -4 -7 -2 -15 5
-8 7 -15 9 -15 4 0 -4 -7 1 -16 12 -8 10 -13 14 -10 8 3 -7 -11 -3 -31 7 -21
11 -43 19 -50 19 -7 0 -13 5 -13 11 0 5 -4 8 -9 4 -5 -3 -12 -1 -16 5 -4 6
-11 8 -16 5 -5 -4 -9 -1 -9 5 0 6 -4 9 -9 5 -5 -3 -12 -1 -16 5 -4 6 -11 8
-16 5 -5 -4 -9 -1 -9 4 0 6 -9 11 -20 11 -11 0 -20 4 -20 10 0 5 -7 7 -15 4
-8 -4 -15 -1 -15 5 0 6 -3 10 -7 9 -5 -1 -17 3 -29 9 -44 25 -145 34 -152 14
-2 -5 -10 -7 -19 -4 -11 4 -14 2 -9 -5 4 -7 2 -12 -6 -12 -7 0 -23 -16 -36
-36 -13 -20 -18 -33 -12 -29 9 5 9 2 2 -11 -5 -11 -9 -37 -8 -59 1 -22 -2 -48
-6 -57 -4 -9 -5 -19 -1 -21 10 -6 9 -690 -1 -705 -3 -6 -3 -13 1 -15 11 -7 9
-219 -2 -236 -5 -9 -4 -12 1 -8 6 3 9 -25 8 -74 -1 -44 3 -79 8 -79 5 0 7 -4
4 -8 -15 -24 56 -101 87 -94 4 1 7 -3 7 -10 0 -9 3 -9 11 -1 13 13 42 6 33 -8
-3 -5 5 -5 18 0 13 4 29 6 36 4 7 -3 20 1 29 9 14 11 16 11 8 -1 -6 -11 -4
-13 8 -8 10 4 17 1 18 -6 0 -8 2 -8 5 -1 3 6 19 10 36 8 17 -2 38 2 46 9 13
10 14 9 7 -2 -6 -11 -4 -13 8 -8 10 4 17 1 17 -6 0 -8 3 -8 8 -2 8 12 43 12
62 0 8 -5 11 -4 7 3 -4 6 0 8 11 5 16 -4 18 -14 18 -66 -1 -34 -5 -68 -10 -76
-6 -9 -5 -12 1 -8 14 9 12 -96 -1 -105 -8 -6 -8 -8 0 -8 13 0 13 -178 0 -199
-6 -9 -5 -12 1 -8 6 4 10 -25 9 -78 -1 -50 -5 -85 -11 -84 -10 0 -67 24 -97
40 -10 5 -25 9 -33 9 -8 0 -15 5 -15 10 0 6 -9 10 -20 10 -11 0 -20 5 -20 10
0 6 -3 9 -7 8 -15 -3 -93 25 -93 34 0 5 -4 6 -10 3 -5 -3 -10 -1 -10 6 0 7 -3
10 -6 7 -3 -4 -17 0 -31 7 -15 8 -30 12 -35 9 -4 -3 -8 0 -8 5 0 6 -7 11 -15
11 -8 0 -15 5 -15 11 0 5 -4 8 -8 5 -5 -3 -31 6 -58 19 -27 14 -57 25 -66 25
-10 0 -18 5 -18 10 0 6 -7 10 -15 10 -8 0 -15 4 -15 9 0 5 -6 9 -12 8 -33 -1
-49 4 -43 14 4 6 0 9 -11 7 -17 -3 -19 5 -20 59 -1 34 -5 66 -8 72 -4 6 -4 11
1 11 10 0 9 73 -1 89 -4 6 -3 11 2 11 13 0 10 33 -3 42 -7 5 -7 8 0 8 11 0 12
81 1 99 -4 6 -3 11 2 11 13 0 10 33 -3 42 -6 5 -6 8 1 8 8 0 9 11 4 35 -4 19
-5 35 -1 35 6 0 6 46 1 60 -1 3 -2 9 -1 14 6 27 3 165 -3 175 -4 6 -4 11 1 11
10 0 9 73 -1 89 -4 6 -3 11 2 11 13 0 10 33 -3 42 -6 5 -6 8 1 8 8 0 9 11 4
35 -4 19 -5 35 -1 35 6 0 6 46 1 60 -1 3 -2 9 -1 14 6 27 3 165 -3 175 -4 6
-4 11 1 11 10 0 9 73 -1 89 -4 6 -3 11 2 11 13 0 10 33 -3 42 -6 5 -6 8 1 8 8
0 9 11 4 35 -4 19 -5 35 -1 35 6 0 6 46 1 60 -1 3 -2 9 -1 13 1 5 3 59 4 121
2 61 6 117 10 123 4 7 3 15 -3 18 -8 5 -7 11 1 21 6 8 8 14 5 14 -4 0 -2 9 4
20 8 14 8 20 0 20 -7 0 -6 6 3 14 8 8 13 26 12 40 -2 14 1 26 6 26 6 0 7 5 4
10 -3 6 -3 16 2 23 4 6 8 19 8 27 0 8 8 15 17 15 9 0 20 4 24 8 4 4 10 4 13 0
3 -5 24 -8 46 -7z m2689 3 c-4 -8 0 -8 15 0 21 12 27 3 22 -36 -1 -7 3 -13 10
-13 6 0 9 -6 6 -14 -3 -8 -3 -17 1 -21 4 -4 8 -15 8 -26 1 -10 2 -20 3 -21 2
-2 5 -21 7 -43 8 -62 9 -69 17 -82 4 -6 3 -15 -3 -18 -7 -4 -7 -11 -2 -18 5
-7 8 -35 7 -64 -1 -36 2 -50 9 -46 8 5 8 3 1 -8 -7 -9 -10 -287 -10 -826 l1
-812 -35 -18 c-20 -10 -38 -21 -39 -26 -2 -4 -8 -5 -13 -1 -5 3 -9 1 -9 -5 0
-5 -13 -12 -30 -16 -16 -4 -30 -11 -30 -16 0 -5 -9 -9 -20 -9 -11 0 -20 -5
-20 -11 0 -6 -7 -9 -15 -5 -9 3 -15 0 -15 -10 0 -8 -4 -13 -8 -10 -11 7 -123
-49 -115 -58 4 -4 -1 -4 -11 0 -13 5 -17 4 -12 -4 5 -8 2 -10 -8 -6 -9 4 -16
1 -16 -6 0 -7 -7 -10 -15 -6 -8 3 -15 2 -15 -3 0 -5 -11 -12 -25 -15 -14 -4
-24 -10 -21 -15 3 -4 0 -8 -7 -8 -18 -1 -41 -7 -47 -14 -13 -15 -134 -68 -143
-62 -6 3 -7 1 -3 -5 4 -7 1 -12 -10 -12 -11 0 -15 6 -11 20 3 11 1 23 -4 26
-5 3 -7 10 -3 15 9 15 10 120 2 126 -5 2 -5 9 -2 15 11 18 10 218 -1 218 -5 0
-4 4 4 9 9 6 10 11 3 15 -6 4 -9 13 -6 20 8 21 11 185 3 180 -4 -2 -5 5 -2 16
3 11 10 20 17 21 6 0 21 2 34 3 13 2 25 -1 28 -6 3 -5 17 -2 31 7 14 10 22 12
18 6 -4 -8 4 -10 29 -8 22 3 36 0 36 -7 0 -6 4 -5 9 2 4 8 12 14 16 14 4 0 12
-6 16 -14 6 -10 9 -8 9 7 0 12 3 16 8 9 7 -11 124 -16 118 -5 -2 3 10 7 27 7
16 1 36 9 42 18 7 9 18 16 24 16 7 0 9 5 6 10 -3 6 -1 10 4 10 6 0 10 3 10 8
-1 4 0 9 1 12 1 3 3 12 5 20 1 8 6 27 10 41 4 16 2 30 -4 34 -6 3 -8 12 -4 18
12 19 11 140 -1 156 -8 11 -8 13 2 7 13 -8 13 19 -1 42 -5 6 -4 12 1 12 10 0
10 70 -1 87 -4 6 -4 14 1 17 10 6 9 107 -2 124 -4 7 -3 12 2 12 10 0 10 70 -1
87 -4 6 -4 14 1 17 10 6 9 107 -1 123 -4 7 -3 14 2 18 11 6 10 64 -2 82 -4 6
-4 14 1 17 10 6 9 107 -1 123 -4 7 -3 14 2 18 11 6 9 70 -1 81 -4 4 -4 12 -1
18 12 18 10 116 -1 116 -6 0 -4 5 4 10 11 7 11 10 2 10 -7 0 -10 5 -7 10 3 6
1 10 -5 10 -6 0 -8 5 -5 10 3 6 2 10 -4 10 -5 0 -12 8 -15 18 -7 20 -67 45
-106 44 -37 -2 -73 -10 -79 -19 -6 -8 -27 -15 -48 -16 -7 0 -13 -4 -13 -9 0
-6 -6 -8 -12 -6 -7 3 -19 -2 -27 -9 -7 -8 -26 -17 -42 -20 -16 -3 -29 -9 -29
-14 0 -5 -8 -9 -18 -9 -10 0 -23 -5 -30 -12 -7 -7 -12 -9 -12 -5 0 3 -20 -4
-45 -18 -25 -13 -42 -18 -38 -12 3 7 -3 4 -14 -6 -11 -9 -23 -14 -26 -10 -4 3
-7 0 -7 -7 0 -7 -3 -11 -6 -7 -3 3 -22 -3 -42 -13 -19 -11 -39 -17 -44 -14 -4
3 -8 0 -8 -5 0 -6 -9 -11 -19 -11 -11 0 -23 -4 -26 -10 -3 -5 -15 -10 -26 -10
-10 0 -19 -3 -19 -8 0 -7 -63 -32 -87 -34 -7 -1 -13 -4 -13 -7 0 -9 -60 -34
-66 -28 -7 6 16 47 36 65 13 12 13 12 0 6 -8 -5 -5 4 8 20 12 16 22 35 22 42
0 8 4 14 9 14 7 0 20 27 25 53 0 4 7 11 14 16 8 5 13 11 12 15 -1 4 20 46 47
94 26 48 48 90 48 94 0 4 8 16 17 27 9 11 14 22 11 25 -4 3 -1 6 6 6 7 0 9 5
6 11 -4 6 2 13 14 16 12 3 18 10 14 17 -4 6 1 5 10 -3 13 -10 17 -10 17 -1 0
10 3 10 15 0 8 -7 15 -9 15 -4 0 5 36 8 80 8 52 -1 77 2 73 9 -4 6 -1 7 8 2
20 -13 49 -13 49 -1 0 7 3 7 8 -1 5 -7 13 -9 21 -3 8 4 24 4 37 0 12 -5 24 -6
27 -3 10 10 67 11 73 1 3 -5 11 -4 19 2 8 7 19 9 25 5 5 -3 10 -1 10 6 0 8 3
9 13 0 8 -6 17 -8 20 -5 3 4 56 7 116 8 61 2 114 6 118 9 10 11 15 8 7 -4z"/>
<path d="M3406 3742 c-3 -2 -28 -6 -58 -8 -29 -3 -59 -5 -65 -6 -7 -1 -13 -4
-13 -7 0 -3 -15 -6 -32 -5 -18 0 -42 -4 -53 -10 -11 -6 -27 -11 -36 -12 -26
-2 -109 -45 -109 -55 0 -6 -4 -7 -10 -4 -9 5 -12 -1 -9 -21 0 -4 -5 -10 -12
-15 -14 -8 -22 -71 -15 -104 5 -21 66 -95 66 -81 0 5 7 3 15 -4 8 -7 15 -9 15
-5 0 4 6 3 13 -2 14 -11 47 -13 47 -3 0 4 6 7 13 7 16 1 54 10 94 22 17 5 34
7 37 3 3 -3 6 -1 6 4 0 5 8 10 18 11 100 7 141 11 151 17 6 4 11 2 11 -5 0
-10 3 -10 12 -1 8 8 15 9 25 1 9 -8 13 -8 13 0 0 7 8 8 26 1 19 -7 31 -7 40 1
12 10 17 7 16 -11 0 -3 14 -4 31 -4 18 1 38 -4 46 -10 12 -9 13 -8 6 4 -8 13
-7 13 8 1 9 -7 17 -11 17 -8 0 3 16 -1 35 -9 20 -8 40 -12 45 -9 6 4 10 2 10
-4 0 -5 9 -8 20 -6 11 2 20 0 20 -4 0 -4 7 -8 15 -8 8 0 15 3 15 7 0 4 11 6
24 5 14 -2 27 3 30 11 3 8 12 14 19 14 16 0 55 75 55 105 0 31 -20 77 -45 105
-13 14 -23 21 -23 17 0 -5 -7 -1 -16 7 -8 9 -20 14 -25 11 -5 -4 -9 -2 -9 3 0
6 -7 13 -16 16 -8 3 -12 2 -9 -4 3 -6 1 -10 -4 -10 -6 0 -11 5 -11 11 0 6 -6
9 -14 6 -8 -3 -20 0 -26 8 -6 7 -20 11 -30 8 -11 -3 -26 -1 -33 4 -6 5 -28 10
-47 12 -19 2 -41 8 -49 14 -11 9 -13 9 -8 0 5 -8 0 -11 -13 -10 -11 1 -20 4
-20 7 0 3 -32 5 -70 6 -44 0 -70 -3 -70 -10 0 -7 -3 -7 -8 -1 -7 10 -48 15
-56 7z"/>
</g>
</svg>
